<svg xmlns="http://www.w3.org/2000/svg" xmlns:xlink="http://www.w3.org/1999/xlink" id="Layer_1" x="0px" y="0px" viewBox="0 0 329.51 95.39" style="enable-background:new 0 0 329.51 95.39;" xml:space="preserve"><style type="text/css">	.st0{fill:currentColor;}</style><g>	<path class="st0" d="M91.99,21.59v32.79c0,10.71-8.72,19.42-19.43,19.42H28.83V41.01c0-10.71,8.72-19.42,19.43-19.42H91.99z   M24.29,40.55v37.8h48.99c12.82,0,23.25-10.54,23.25-23.5v-37.8H47.54C34.72,17.05,24.3,27.59,24.29,40.55"></path>	<path class="st0" d="M82.19,43.55c-0.04,0.03-0.8,0.49-1.38,0.84c-0.58-2.63-1.73-5.05-3.32-7.11c0.48-0.25,0.97-0.5,1.02-0.51  c1.79-0.49,3.74,0.32,4.6,2.04C83.93,40.45,83.5,42.39,82.19,43.55 M63.16,61.83c-7.48,0-13.54-6.06-13.54-13.54  c0-7.48,6.06-13.54,13.54-13.54c7.48,0,13.54,6.06,13.54,13.54C76.7,55.76,70.64,61.83,63.16,61.83 M85.95,37.34  c-1.77-3.54-6.08-4.98-9.62-3.21l-1.24,0.58c-3.18-2.78-7.33-4.48-11.89-4.48c-2.32,0-4.53,0.44-6.56,1.24l0-2.68l-2.99-0.6  l-1.49,2.66l2.08,1.77c-5.43,3.11-9.08,8.96-9.08,15.66c0,0.98,0.08,1.95,0.23,2.89c0,0.01,0,0.02,0,0.03  c-8.18-2.66-9.82-3-12.45-3.33l-1.62,2.39C39.47,53,48.33,61.14,55.2,64.47c0.37,0.18,0.75,0.35,1.13,0.51  c0.03,0.01,0.05,0.02,0.07,0.03c0.46,0.19,0.88,0.37,1.28,0.46c1.74,0.56,3.6,0.86,5.52,0.86c9.97,0,18.05-8.08,18.05-18.05  c0-0.11-0.01-0.23-0.01-0.34c0.79-0.5,1.75-1.11,1.8-1.14C86.36,44.95,87.67,40.78,85.95,37.34"></path>	<path class="st0" d="M53.07,43.97c-1.7,7.61,2.58,14.05,8.82,15.21C63.63,54.19,61.93,46.49,53.07,43.97"></path>	<path class="st0" d="M72.22,49.91c0.12,5.48-3.71,9.33-8.17,9.27C63.54,55.5,65.77,50.43,72.22,49.91"></path>	<path class="st0" d="M216,34.08c0.11,0.16,0.28,0.26,0.46,0.3c0.19,0.04,0.38,0.02,0.55-0.07l2.5-1.3  c-0.11-0.21-0.22-0.43-0.35-0.65c-0.1-0.18-0.22-0.34-0.33-0.52c-1.79-2.56-4.83-4.06-8.71-4.06c-4.41,0-7.75,1.95-9.38,5.23  c-0.73,1.44-1.11,3.17-1.11,5.1c0,1.91,0.38,3.65,1.1,5.09c1.64,3.28,4.98,5.22,9.4,5.22c3.88,0,6.92-1.48,8.71-4.05  c0.11-0.18,0.23-0.34,0.33-0.53c0.13-0.19,0.24-0.41,0.35-0.62l-2.5-1.32c-0.17-0.09-0.36-0.11-0.55-0.07  c-0.18,0.06-0.35,0.16-0.46,0.31c0,0-0.36,0.54-0.56,0.76c-1.17,1.33-2.97,2.05-5.31,2.05c-3.04,0-5.18-1.21-6.2-3.43  c-0.43-0.95-0.67-2.09-0.67-3.41c0-1.33,0.24-2.48,0.69-3.44c1.01-2.2,3.15-3.41,6.18-3.41c2.35,0,4.16,0.72,5.32,2.05  C215.64,33.56,216,34.08,216,34.08"></path>	<path class="st0" d="M301.7,34.08c0.11,0.16,0.28,0.26,0.47,0.3c0.18,0.04,0.38,0.02,0.54-0.07l2.5-1.3  c-0.1-0.21-0.22-0.43-0.34-0.65c-0.11-0.18-0.23-0.34-0.34-0.52c-1.79-2.56-4.83-4.06-8.7-4.06c-4.42,0-7.76,1.95-9.39,5.23  c-0.72,1.44-1.11,3.17-1.11,5.1c0,1.91,0.38,3.65,1.11,5.09c1.63,3.28,4.96,5.22,9.39,5.22c3.87,0,6.91-1.48,8.71-4.05  c0.11-0.18,0.22-0.34,0.33-0.53c0.12-0.19,0.24-0.41,0.34-0.62l-2.5-1.32c-0.16-0.09-0.36-0.11-0.54-0.07  c-0.19,0.06-0.35,0.16-0.47,0.31c0,0-0.36,0.54-0.56,0.76c-1.17,1.33-2.97,2.05-5.31,2.05c-3.05,0-5.19-1.21-6.21-3.43  c-0.43-0.95-0.67-2.09-0.67-3.41c0-1.33,0.24-2.48,0.68-3.44c1.02-2.2,3.15-3.41,6.19-3.41c2.34,0,4.14,0.72,5.31,2.05  C301.34,33.56,301.7,34.08,301.7,34.08"></path>	<path class="st0" d="M256.34,33.76l13.76,14.45h2.49V29.68c0-0.96-0.78-1.73-1.74-1.73c-0.96,0-1.73,0.77-1.73,1.73v12.73  l-13.19-13.87c-0.01-0.02-0.05-0.03-0.08-0.05c-0.31-0.32-0.75-0.54-1.25-0.54c-0.96,0-1.73,0.77-1.73,1.73v18.53h3.46V33.76z"></path>	<path class="st0" d="M247.58,29.68c0-0.96-0.78-1.73-1.73-1.73c-0.96,0-1.73,0.77-1.73,1.73v9.59v8.94h3.47v-8.94V29.68z"></path>	<path class="st0" d="M281.54,29.68c0-0.96-0.78-1.73-1.74-1.73c-0.95,0-1.73,0.77-1.73,1.73v10.02v8.51h3.47v-8.51V29.68z"></path>	<path class="st0" d="M116.81,34.41l6.75,8.57c0.13,0.16,0.32,0.27,0.53,0.27c0.21,0,0.4-0.11,0.53-0.27l6.92-8.62v13.86H135V29.68  c0-0.96-0.76-1.73-1.73-1.73c-0.53,0-0.99,0.25-1.31,0.65c-0.03,0.02-0.05,0.04-0.08,0.06l-7.77,9.68l-7.64-9.68  c-0.02-0.02-0.06-0.04-0.07-0.06c-0.32-0.38-0.78-0.65-1.32-0.65c-0.95,0-1.73,0.77-1.73,1.73v18.53h3.47V34.41z"></path>	<path class="st0" d="M153.31,33.76l13.76,14.45h2.49V29.68c0-0.96-0.77-1.73-1.73-1.73c-0.96,0-1.73,0.77-1.73,1.73v12.73  l-13.19-13.87c-0.01-0.02-0.05-0.03-0.08-0.05c-0.31-0.32-0.76-0.54-1.24-0.54c-0.96,0-1.74,0.77-1.74,1.73v18.53h3.47V33.76z"></path>	<path class="st0" d="M144.64,29.68c0-0.96-0.79-1.73-1.74-1.73c-0.96,0-1.73,0.77-1.73,1.73v9.59v8.94h3.47v-8.51V29.68z"></path>	<path class="st0" d="M183.33,31.45h5.71c0.97,0,1.73-0.78,1.73-1.73c0-0.96-0.77-1.73-1.73-1.73h-14.89  c-0.96,0-1.73,0.77-1.73,1.73c0,0.96,0.77,1.73,1.73,1.73h5.71v16.76h3.46V31.45z"></path>	<path class="st0" d="M224.83,29.68c0-0.96,0.78-1.73,1.73-1.73c0.96,0,1.73,0.77,1.73,1.73v6.51v3.28v5.45h10.79  c0.91,0,1.65,0.74,1.65,1.64c0,0.92-0.74,1.66-1.65,1.66h-14.25V29.68z"></path>	<path class="st0" d="M116.25,64.65c1.67,0,2.77-1.13,2.77-2.68v-0.02c0-1.56-1.09-2.71-2.77-2.71h-1.57v5.42H116.25z M113.28,58.66  c0-0.4,0.31-0.71,0.71-0.71h2.26c2.5,0,4.24,1.72,4.24,3.96v0.02c0,2.24-1.73,3.98-4.24,3.98h-2.26c-0.4,0-0.71-0.31-0.71-0.71  V58.66z"></path>	<path class="st0" d="M126.11,65.21v-6.55c0-0.4,0.31-0.71,0.71-0.71h4.63c0.34,0,0.63,0.28,0.63,0.63c0,0.35-0.28,0.63-0.63,0.63  h-3.94v2.07h3.43c0.34,0,0.63,0.28,0.63,0.64c0,0.34-0.28,0.61-0.63,0.61h-3.43v2.14h3.99c0.34,0,0.62,0.29,0.62,0.62  c0,0.35-0.28,0.63-0.62,0.63h-4.69C126.42,65.92,126.11,65.61,126.11,65.21"></path>	<path class="st0" d="M137.66,58.61c0-0.39,0.31-0.71,0.71-0.71h0.15c0.34,0,0.54,0.17,0.73,0.41l3.98,5.15v-4.89  c0-0.38,0.31-0.68,0.68-0.68c0.39,0,0.69,0.31,0.69,0.68v6.69c0,0.39-0.29,0.69-0.68,0.69h-0.06c-0.33,0-0.53-0.17-0.73-0.42  l-4.1-5.3v5.05c0,0.38-0.31,0.68-0.68,0.68c-0.38,0-0.69-0.31-0.69-0.68V58.61z"></path>	<path class="st0" d="M152.54,59.25h-1.94c-0.36,0-0.65-0.3-0.65-0.65c0-0.35,0.28-0.65,0.65-0.65h5.29c0.35,0,0.64,0.3,0.64,0.65  c0,0.35-0.28,0.65-0.64,0.65h-1.95v6.03c0,0.39-0.32,0.69-0.71,0.69c-0.39,0-0.71-0.31-0.71-0.69V59.25z"></path>	<path class="st0" d="M165.73,62.76l-1.4-3.22l-1.4,3.22H165.73z M160.51,65.01l2.96-6.6c0.16-0.35,0.45-0.57,0.84-0.57h0.07  c0.4,0,0.67,0.22,0.83,0.57l2.96,6.6c0.06,0.1,0.08,0.2,0.08,0.3c0,0.38-0.29,0.67-0.66,0.67c-0.33,0-0.56-0.19-0.68-0.49  L166.26,64h-3.87l-0.67,1.53c-0.11,0.29-0.35,0.44-0.65,0.44c-0.36,0-0.65-0.28-0.65-0.65C160.42,65.23,160.46,65.12,160.51,65.01"></path>	<path class="st0" d="M173.69,58.59c0-0.39,0.31-0.69,0.71-0.69c0.39,0,0.7,0.31,0.7,0.69v6.05h3.61c0.35,0,0.64,0.29,0.64,0.64  s-0.28,0.64-0.64,0.64h-4.3c-0.4,0-0.71-0.31-0.71-0.71V58.59z"></path>	<path class="st0" d="M192,65.21v-6.55c0-0.4,0.31-0.71,0.7-0.71h4.63c0.34,0,0.62,0.28,0.62,0.63c0,0.35-0.29,0.63-0.62,0.63h-3.94  v2.07h3.42c0.34,0,0.63,0.28,0.63,0.64c0,0.34-0.29,0.61-0.63,0.61h-3.42v2.14h3.99c0.34,0,0.63,0.29,0.63,0.62  c0,0.35-0.29,0.63-0.63,0.63h-4.69C192.31,65.92,192,65.61,192,65.21"></path>	<path class="st0" d="M203.35,64.81l2.37-2.94l-2.23-2.76c-0.11-0.15-0.22-0.33-0.22-0.52c0-0.39,0.3-0.68,0.7-0.68  c0.3,0,0.47,0.11,0.64,0.34l2.02,2.65l1.99-2.61c0.18-0.25,0.38-0.39,0.68-0.39c0.31,0,0.64,0.25,0.64,0.64  c0,0.21-0.08,0.36-0.22,0.54l-2.23,2.78l2.35,2.92c0.12,0.15,0.22,0.32,0.22,0.52c0,0.39-0.29,0.68-0.7,0.68  c-0.29,0-0.46-0.11-0.63-0.34l-2.14-2.79l-2.1,2.74c-0.19,0.25-0.38,0.39-0.68,0.39c-0.32,0-0.64-0.25-0.64-0.65  C203.15,65.14,203.22,64.97,203.35,64.81"></path>	<path class="st0" d="M214.88,61.96v-0.02c0-2.26,1.7-4.12,4.11-4.12c1.23,0,2.04,0.36,2.73,0.9c0.15,0.11,0.28,0.31,0.28,0.56  c0,0.39-0.31,0.68-0.7,0.68c-0.19,0-0.33-0.07-0.42-0.14c-0.54-0.44-1.14-0.72-1.9-0.72c-1.51,0-2.63,1.25-2.63,2.81v0.02  c0,1.56,1.1,2.82,2.63,2.82c0.84,0,1.41-0.27,1.99-0.76c0.1-0.09,0.25-0.16,0.42-0.16c0.35,0,0.66,0.3,0.66,0.65  c0,0.22-0.1,0.39-0.23,0.5c-0.75,0.66-1.61,1.07-2.89,1.07C216.61,66.06,214.88,64.25,214.88,61.96"></path>	<path class="st0" d="M227.55,65.21v-6.55c0-0.4,0.31-0.71,0.71-0.71h4.63c0.34,0,0.62,0.28,0.62,0.63c0,0.35-0.28,0.63-0.62,0.63  h-3.94v2.07h3.43c0.34,0,0.63,0.28,0.63,0.64c0,0.34-0.28,0.61-0.63,0.61h-3.43v2.14h4c0.34,0,0.63,0.29,0.63,0.62  c0,0.35-0.28,0.63-0.63,0.63h-4.69C227.86,65.92,227.55,65.61,227.55,65.21"></path>	<path class="st0" d="M239.11,58.59c0-0.39,0.31-0.69,0.71-0.69c0.39,0,0.69,0.31,0.69,0.69v6.05h3.61c0.35,0,0.64,0.29,0.64,0.64  s-0.29,0.64-0.64,0.64h-4.3c-0.4,0-0.71-0.31-0.71-0.71V58.59z"></path>	<path class="st0" d="M250.08,58.59c0-0.39,0.3-0.69,0.7-0.69c0.39,0,0.69,0.31,0.69,0.69v6.05h3.61c0.35,0,0.64,0.29,0.64,0.64  s-0.29,0.64-0.64,0.64h-4.3c-0.4,0-0.7-0.31-0.7-0.71V58.59z"></path>	<path class="st0" d="M261.05,65.21v-6.55c0-0.4,0.31-0.71,0.71-0.71h4.63c0.34,0,0.62,0.28,0.62,0.63c0,0.35-0.28,0.63-0.62,0.63  h-3.94v2.07h3.43c0.34,0,0.63,0.28,0.63,0.64c0,0.34-0.29,0.61-0.63,0.61h-3.43v2.14h3.99c0.34,0,0.63,0.29,0.63,0.62  c0,0.35-0.28,0.63-0.63,0.63h-4.69C261.36,65.92,261.05,65.61,261.05,65.21"></path>	<path class="st0" d="M272.6,58.61c0-0.39,0.31-0.71,0.7-0.71h0.15c0.34,0,0.54,0.17,0.73,0.41l3.98,5.15v-4.89  c0-0.38,0.31-0.68,0.68-0.68c0.39,0,0.69,0.31,0.69,0.68v6.69c0,0.39-0.29,0.69-0.68,0.69h-0.06c-0.33,0-0.54-0.17-0.73-0.42  l-4.1-5.3v5.05c0,0.38-0.3,0.68-0.68,0.68c-0.39,0-0.69-0.31-0.69-0.68V58.61z"></path>	<path class="st0" d="M285.16,61.96v-0.02c0-2.26,1.7-4.12,4.11-4.12c1.23,0,2.04,0.36,2.73,0.9c0.15,0.11,0.27,0.31,0.27,0.56  c0,0.39-0.31,0.68-0.69,0.68c-0.19,0-0.33-0.07-0.42-0.14c-0.55-0.44-1.14-0.72-1.9-0.72c-1.51,0-2.63,1.25-2.63,2.81v0.02  c0,1.56,1.1,2.82,2.63,2.82c0.84,0,1.41-0.27,1.99-0.76c0.1-0.09,0.25-0.16,0.42-0.16c0.35,0,0.66,0.3,0.66,0.65  c0,0.22-0.1,0.39-0.23,0.5c-0.75,0.66-1.61,1.07-2.89,1.07C286.89,66.06,285.16,64.25,285.16,61.96"></path>	<path class="st0" d="M297.84,65.21v-6.55c0-0.4,0.31-0.71,0.71-0.71h4.63c0.34,0,0.62,0.28,0.62,0.63c0,0.35-0.28,0.63-0.62,0.63  h-3.94v2.07h3.42c0.34,0,0.63,0.28,0.63,0.64c0,0.34-0.29,0.61-0.63,0.61h-3.42v2.14h3.99c0.34,0,0.62,0.29,0.62,0.62  c0,0.35-0.29,0.63-0.62,0.63h-4.69C298.15,65.92,297.84,65.61,297.84,65.21"></path></g></svg>