<svg xmlns="http://www.w3.org/2000/svg" xmlns:xlink="http://www.w3.org/1999/xlink" width="1175px" height="891px" style="shape-rendering:geometricPrecision; text-rendering:geometricPrecision; image-rendering:optimizeQuality; fill-rule:evenodd; clip-rule:evenodd"><g><path style="opacity:0.999" fill="currentColor" d="M 40.5,-0.5 C 42.5,-0.5 44.5,-0.5 46.5,-0.5C 142.839,26.4687 232.505,68.6353 315.5,126C 478.903,244.32 572.403,403.487 596,603.5C 605.391,696.458 597.057,787.458 571,876.5C 570.05,880.061 568.55,883.395 566.5,886.5C 564.449,888.573 561.949,889.573 559,889.5C 498.227,878.951 440.727,859.451 386.5,831C 241.703,751.555 137.87,635.721 75,483.5C 24.9567,353.014 8.95668,217.68 27,77.5C 30.5519,51.3024 35.0519,25.3024 40.5,-0.5 Z"></path></g><g><path style="opacity:0.999" fill="currentColor" d="M 734.5,890.5 C 721.167,890.5 707.833,890.5 694.5,890.5C 692.681,884.656 691.181,878.656 690,872.5C 678.297,717.524 727.797,586.357 838.5,479C 931.992,395.304 1041.99,350.637 1168.5,345C 1174.88,465.198 1146.04,575.698 1082,676.5C 998.189,800.619 882.355,871.952 734.5,890.5 Z"></path></g></svg>